# xmcd
#
# Track frame offsets: 
#        150
#        14600
#        26598
#        42356
#        57855
#        71694
#        83551
#        94785
#        108666
#        122389
#        134549
#        155873
#        167098
#
# Disc length: 2373 seconds
#
# Revision: 0
# Processed by: cddbd v1.5.2PL0 Copyright (c) Steve Scherf et al.
# Submitted via: ExactAudioCopy v0.99pb4
#
DISCID=ae09430d
DTITLE=No One You Know - Calm Before the Storm
DYEAR=2010
DGENRE=Bluegrass
TTITLE0=Looking For a Sign
TTITLE1=The Gambler
TTITLE2=We Don't Love Here Anymore
TTITLE3=In Her Prayers
TTITLE4=Calm Before the Storm
TTITLE5=Ashes of Love
TTITLE6=Jeffries Store
TTITLE7=Year of the Locust
TTITLE8=Just Over the Blue
TTITLE9=Big City
TTITLE10=West Virginia in My Review
TTITLE11=One Tear
TTITLE12=Peaceful Journey
EXTD=
EXTT0=
EXTT1=
EXTT2=
EXTT3=
EXTT4=
EXTT5=
EXTT6=
EXTT7=
EXTT8=
EXTT9=
EXTT10=
EXTT11=
EXTT12=
PLAYORDER=
